<?xml version="1.0" encoding="UTF-8" standalone="no"?>
<!-- Created with Inkscape (http://www.inkscape.org/) -->

<svg
   width="5.274096mm"
   height="5.2740922mm"
   viewBox="0 0 5.274096 5.2740922"
   version="1.1"
   id="svg1"
   xmlns="http://www.w3.org/2000/svg"
   xmlns:svg="http://www.w3.org/2000/svg">
  <defs
     id="defs1" />
  <g
     id="layer1"
     transform="translate(-43.011748,-76.53327)">
    <path
       d="m 43.011748,76.53327 h 1.623156 l 0.612366,0.612366 -1.182873,0.0155 1.187524,1.189075 -0.42323,0.42323 -1.187524,-1.189075 -0.01705,1.182874 -0.612365,-0.612366 z"
       id="text1"
       style="font-size:3.175px;stroke-width:0.265;fill:#ffffff;fill-opacity:1;stroke-dasharray:none"
       aria-label="🡼" />
    <path
       d="m 48.285844,76.53327 h -1.623156 l -0.612366,0.612366 1.182873,0.0155 -1.187524,1.189075 0.42323,0.42323 1.187524,-1.189075 0.01705,1.182874 0.612365,-0.612366 z"
       id="text1-1"
       style="font-size:3.175px;stroke-width:0.265;fill:#ffffff;fill-opacity:1;stroke-dasharray:none"
       aria-label="🡼" />
    <path
       d="m 43.011748,81.807362 h 1.623156 l 0.612366,-0.612366 -1.182873,-0.0155 1.187524,-1.189075 -0.42323,-0.42323 -1.187524,1.189075 -0.01705,-1.182874 -0.612365,0.612366 z"
       id="text1-3"
       style="font-size:3.175px;stroke-width:0.265;fill:#ffffff;fill-opacity:1;stroke-dasharray:none"
       aria-label="🡼" />
    <path
       d="m 48.285844,81.807362 h -1.623156 l -0.612366,-0.612366 1.182873,-0.0155 -1.187524,-1.189075 0.42323,-0.42323 1.187524,1.189075 0.01705,-1.182874 0.612365,0.612366 z"
       id="text1-1-2"
       style="font-size:3.175px;stroke-width:0.265;fill:#ffffff;fill-opacity:1;stroke-dasharray:none"
       aria-label="🡼" />
  </g>
</svg>
