<?xml version="1.0" encoding="UTF-8" standalone="no"?>
<!-- Created with Inkscape (http://www.inkscape.org/) -->

<svg
   width="20"
   height="20"
   viewBox="0 0 5.2916665 5.2916666"
   version="1.1"
   id="svg1"
   inkscape:version="1.4.2 (f4327f4, 2025-05-13)"
   sodipodi:docname="link.svg"
   xmlns:inkscape="http://www.inkscape.org/namespaces/inkscape"
   xmlns:sodipodi="http://sodipodi.sourceforge.net/DTD/sodipodi-0.dtd"
   xmlns="http://www.w3.org/2000/svg"
   xmlns:svg="http://www.w3.org/2000/svg">
  <sodipodi:namedview
     id="namedview1"
     pagecolor="#ffffff"
     bordercolor="#000000"
     borderopacity="0.25"
     inkscape:showpageshadow="2"
     inkscape:pageopacity="0.0"
     inkscape:pagecheckerboard="0"
     inkscape:deskcolor="#d1d1d1"
     inkscape:document-units="mm"
     inkscape:zoom="8"
     inkscape:cx="1.0625"
     inkscape:cy="8.6875"
     inkscape:window-width="1920"
     inkscape:window-height="1009"
     inkscape:window-x="1037"
     inkscape:window-y="-8"
     inkscape:window-maximized="1"
     inkscape:current-layer="layer1" />
  <defs
     id="defs1" />
  <g
     inkscape:label="Layer 1"
     inkscape:groupmode="layer"
     id="layer1">
    <path
       style="font-size:3.175px;stroke-width:0.0436101;stroke-linecap:round;fill:#ffffff;fill-opacity:1"
       d="m 4.7833296,0.5070594 q 0.2146439,0.21208883 0.3194107,0.48039368 0.1073218,0.26830502 0.1073218,0.55194162 0,0.2836367 -0.1073218,0.5519417 Q 4.9979736,2.357086 4.7858849,2.5691746 L 4.0474074,3.3050969 Q 3.8583162,3.4967433 3.6104535,3.6040653 3.2016081,3.7880459 2.7595436,3.708832 2.547455,3.673058 2.3481427,3.5734019 2.1488304,3.4711906 1.9827367,3.3050969 1.7604269,3.082787 1.6505497,2.7863739 L 1.8498621,2.5870618 Q 1.9904027,2.4465211 2.1973808,2.418413 q 0.04344,0.2606389 0.2274204,0.4471748 0.1405405,0.1379857 0.3194107,0.196757 0.1788699,0.056215 0.3602952,0.038328 Q 3.239938,3.0853442 3.3702567,3.0291256 3.5005763,2.9703543 3.605343,2.8655877 L 4.3412652,2.1271104 Q 4.5048036,1.9661274 4.5584644,1.7540387 4.6121256,1.5393947 4.5559092,1.327306 4.5022482,1.1126621 4.3412652,0.94912375 4.1802824,0.78558563 3.9656383,0.73192447 q -0.2120888,-0.0536609 -0.4267328,0 Q 3.326817,0.78558539 3.1632787,0.94912375 L 2.7161037,1.3937434 V 1.3835201 Q 2.6445562,1.3656312 2.5730077,1.352855 2.2178231,1.2889732 1.8651938,1.3758521 1.9214099,1.3068598 1.9827365,1.2429772 L 2.718659,0.5070594 Q 2.933303,0.29241547 3.1990527,0.18764873 3.4673576,0.08032677 3.7509942,0.08032677 q 0.2836369,0 0.5493864,0.10732196 0.2683051,0.10476662 0.482949,0.31941067 z M 3.30893,4.0461298 2.5730077,4.7846071 Q 2.3609192,4.9966957 2.0926141,5.1040177 1.8243092,5.2113399 1.5406724,5.2113399 q -0.2836367,0 -0.55194147,-0.1073218 Q 0.72298115,4.9966957 0.50833722,4.7846071 0.29624851,4.5699631 0.18892655,4.3042136 0.08160454,4.0359085 0.08160454,3.7522719 q 0,-0.286192 0.10732197,-0.5519417 0.10732184,-0.268305 0.31941067,-0.4803937 L 1.2468147,1.9814592 Q 1.4359057,1.792368 1.6837685,1.6824907 2.0951694,1.4985102 2.5321232,1.5777241 2.7467671,1.6160527 2.9435242,1.7182646 3.1428363,1.81792 3.30893,1.981459 3.5312399,2.2063239 3.6411169,2.5027371 L 3.4418047,2.7020495 Q 3.3038195,2.8400349 3.0942861,2.8681431 3.0508462,2.6100593 2.8668656,2.4235234 2.7288802,2.285538 2.547455,2.2267666 2.3685849,2.1679951 2.189715,2.1884372 2.0517293,2.203766 1.92141,2.2625397 1.7936452,2.3187552 1.6863237,2.4235219 l -0.73592214,0.738479 q -0.16353859,0.1609839 -0.21719915,0.375627 -0.0536609,0.2120887 0,0.4267326 0.0536609,0.2120887 0.21719915,0.3756271 0.16353864,0.1635387 0.37562694,0.2171992 0.2146439,0.053661 0.4267327,0 0.214644,-0.053661 0.3756268,-0.2171992 L 2.5678972,3.9030338 q 0.074103,0.020442 0.1507614,0.033219 v 0 q 0.3602952,0.061327 0.7103692,-0.025553 -0.053661,0.071548 -0.1200978,0.13543 z"
       id="text1"
       aria-label="🔗" />
  </g>
</svg>
